<svg xmlns="http://www.w3.org/2000/svg" xmlns:xlink="http://www.w3.org/1999/xlink" viewBox="0 0 128 128"><defs><linearGradient id="b"><stop offset="0" stop-color="#a2a2a2"/><stop offset=".143" stop-color="#d0d0d0"/><stop offset=".286" stop-color="#fff"/><stop offset=".571" stop-color="#acacc0"/><stop offset="1" stop-color="#fff"/></linearGradient><linearGradient id="a"><stop offset="0" stop-color="#4c4c4c"/><stop offset=".151" stop-color="#c7c7c7"/><stop offset=".342" stop-color="#fff4f4"/><stop offset=".659" stop-color="#cacaca"/><stop offset=".851" stop-color="#798093"/><stop offset="1" stop-color="#aeaeaf"/></linearGradient><linearGradient id="g"><stop offset="0" stop-color="#d9d9d9"/><stop offset="1" stop-color="#fff"/></linearGradient><linearGradient id="h"><stop offset="0" stop-color="#9d1c00"/><stop offset="1" stop-color="#ff9700"/></linearGradient><linearGradient id="c"><stop offset="0"/><stop offset="1" stop-color="#8d8d97"/></linearGradient><linearGradient id="d"><stop offset="0" stop-color="#936c06"/><stop offset=".5" stop-color="#d89e18"/><stop offset=".83" stop-color="#fff8e8"/><stop offset="1" stop-color="#ccc"/></linearGradient><linearGradient id="e"><stop offset="0" stop-color="#c4b18e"/><stop offset=".277" stop-color="orange"/><stop offset=".582" stop-color="#ffd27f"/><stop offset=".859" stop-color="#ffe8bf"/><stop offset="1" stop-color="#c8c8cf"/></linearGradient><linearGradient id="f"><stop offset="0" stop-color="#727272"/><stop offset=".44" stop-color="#c0c0c3"/><stop offset=".638" stop-color="#f9f9ff"/><stop offset=".767" stop-color="#fff"/><stop offset="1" stop-color="#a0a0ac"/></linearGradient><linearGradient id="i"><stop offset="0" stop-color="#ff8d14"/><stop offset=".467" stop-color="#f19b42" stop-opacity=".749"/><stop offset=".793" stop-color="#ff8f1e" stop-opacity=".498"/><stop offset="1" stop-color="#ea6e06"/></linearGradient><linearGradient xlink:href="#a" id="l" x1="65" x2="64.937" y1="28" y2="6.888" gradientTransform="translate(5.179 919.898)" gradientUnits="userSpaceOnUse"/><linearGradient xlink:href="#b" id="m" x1="58" x2="58" y1="6" y2="0" gradientTransform="translate(7.143 926.326)" gradientUnits="userSpaceOnUse"/><linearGradient xlink:href="#c" id="n" x1="5" x2="5" y1="39" y2="29" gradientUnits="userSpaceOnUse"/><linearGradient xlink:href="#d" id="o" x1="42.727" x2="38.03" y1="1036.352" y2="1010.594" gradientUnits="userSpaceOnUse"/><linearGradient xlink:href="#e" id="p" x1="28.642" x2="28.503" y1="29.152" y2="-1.91" gradientUnits="userSpaceOnUse"/><linearGradient xlink:href="#f" id="q" x1="190.759" x2="190.756" y1="29.657" y2="-.647" gradientTransform="matrix(-.1874 -.27997 -.3658 .24483 -28.223 1004.238)" gradientUnits="userSpaceOnUse"/><radialGradient xlink:href="#g" id="k" cx="32.928" cy="30.877" r="45" fx="32.928" fy="30.877" gradientTransform="matrix(.4324 1.60878 -.85133 .22881 50.442 900.187)" gradientUnits="userSpaceOnUse"/><radialGradient xlink:href="#h" id="j" cx="36.828" cy="13.668" r="55.5" fx="36.828" fy="13.668" gradientTransform="matrix(.9136 1.3041 -.81375 .57007 23.918 910.915)" gradientUnits="userSpaceOnUse"/><radialGradient xlink:href="#i" id="r" cx="238.362" cy="7.805" r="15.09" fx="238.362" fy="7.805" gradientTransform="matrix(.14896 .55942 .61007 -.30209 -110.027 812.676)" gradientUnits="userSpaceOnUse"/></defs><path fill="url(#j)" stroke="#000" stroke-width=".951" d="M27.155 936.266c-4.754 0-9.507 4.754-9.507 9.508v90.32c0 4.753 4.753 9.507 9.507 9.507h76.06c4.753 0 10.457-4.754 10.457-9.507l-.95-90.32c0-4.754-4.754-9.508-9.508-9.508z" transform="translate(0 -924.362)"/><path fill="url(#k)" d="m26.932 946.262.065 92.813 78.552-.315.221-92.668z" transform="translate(0 -924.362)"/><g stroke="#000" stroke-width=".5"><path fill="url(#l)" d="M40.536 932.505v15h49v-15z" transform="translate(4.066 -876.906) scale(.95074)"/><path fill="url(#m)" d="m52.143 932.326-5-6h35l-5 6z" transform="translate(4.066 -876.906) scale(.95074)"/></g><path fill="none" stroke="#979797" stroke-linecap="round" stroke-width="10" d="m30.357 38 49.13.105" transform="matrix(.82286 0 0 .95074 12.501 5.544)"/><path fill="none" stroke="#787878" stroke-width=".5" d="M90 33v10h10V33z" transform="matrix(.82286 0 0 .95074 12.501 5.544)"/><path fill="#7b82f9" d="m89.027 37.87-1.646 1.9 3.292 5.705 10.697-12.36-10.697 9.508z"/><path fill="none" stroke="#979797" stroke-linecap="round" stroke-width="10" d="m30.357 38 49.13.105" transform="matrix(.82286 0 0 .95074 12.207 24.559)"/><path fill="none" stroke="#787878" stroke-width=".5" d="M90 33v10h10V33z" transform="matrix(.82286 0 0 .95074 12.207 24.559)"/><path fill="#7b82f9" d="m88.733 56.884-1.646 1.902 3.292 5.704 10.697-12.36-10.697 9.508z"/><path fill="none" stroke="#979797" stroke-linecap="round" stroke-width="10" d="m30.357 38 49.13.105" transform="matrix(.82286 0 0 .95074 12.923 43.475)"/><path fill="none" stroke="#787878" stroke-width=".5" d="M90 33v10h10V33z" transform="matrix(.82286 0 0 .95074 12.923 43.475)"/><path fill="#7b82f9" d="m89.449 75.8-1.646 1.902 3.292 5.704 10.697-12.36-10.697 9.508z"/><path fill="none" stroke="#979797" stroke-linecap="round" stroke-width="10" d="m30.357 38 49.13.105" transform="matrix(.82286 0 0 .95074 12.207 62.589)"/><path fill="none" stroke="#787878" stroke-width=".5" d="M90 33v10h10V33z" transform="matrix(.82286 0 0 .95074 12.207 62.589)"/><path fill="#7b82f9" d="m88.733 94.914-1.646 1.902 3.292 5.704 10.697-12.36-10.697 9.508z"/><g stroke="#000"><path fill="url(#n)" d="m-10 34 25-5v10z" transform="matrix(-.20829 -.22667 -.29616 .27212 96.797 103.208)"/><path fill="url(#o)" d="m15 1027.362 40 10v-30c-8.373 1.916-22.205 5.392-40 10z" transform="matrix(-.20829 -.22667 -.29616 .27212 389.507 -165.75)"/><path fill="url(#p)" d="M-85 29h250V-1H-85z" transform="matrix(-.20829 -.22667 -.29616 .27212 61.714 76.917)"/><path fill="url(#q)" d="m-58.777 957.797-9.37-13.999-10.973 7.345 9.37 13.999z" transform="rotate(-8.784 -5454.811 -72.436) scale(.91372)"/><path fill="url(#r)" d="M-78.73 950.881s-4.083-5.551-2.948-6.23c1.955-2.846 5.796-4.743 8.44-5.649 1.758.12 4.636 5.101 4.636 5.101z" transform="rotate(-8.784 -5454.811 -72.436) scale(.91372)"/></g></svg>
